<svg width="58" height="58" viewBox="0 0 58 58" fill="none" xmlns="http://www.w3.org/2000/svg">
<path fill-rule="evenodd" clip-rule="evenodd" d="M21.75 26.5833C27.0812 26.5833 31.4167 22.2478 31.4167 16.9167C31.4167 11.5855 27.0812 7.25 21.75 7.25C16.4188 7.25 12.0833 11.5855 12.0833 16.9167C12.0833 22.2478 16.4188 26.5833 21.75 26.5833ZM41.0833 31.4167C45.0805 31.4167 48.3333 28.1638 48.3333 24.1667C48.3333 20.1695 45.0805 16.9167 41.0833 16.9167C37.0862 16.9167 33.8333 20.1695 33.8333 24.1667C33.8333 28.1638 37.0862 31.4167 41.0833 31.4167ZM53.1667 45.9167C53.1667 47.2507 52.0864 48.3333 50.75 48.3333H38.6667C38.6667 49.6673 37.5864 50.75 36.25 50.75H7.25001C5.91359 50.75 4.83334 49.6673 4.83334 48.3333C4.83334 39.005 12.4241 31.4167 21.75 31.4167C26.4069 31.4167 30.6264 33.3089 33.6883 36.3612C35.7884 34.7372 38.3743 33.8333 41.0833 33.8333C47.7461 33.8333 53.1667 39.2539 53.1667 45.9167Z" fill="#F3A447"/>
</svg>
